<mxfile host="app.diagrams.net" modified="2024-01-03T21:46:45.052Z" agent="Mozilla/5.0 (X11; Ubuntu; Linux x86_64; rv:120.0) Gecko/20100101 Firefox/120.0" version="22.1.16" etag="BhuKWVcdZTkarqB5Gmve" type="github">
  <diagram name="Page-1" id="5K-tGmrTEZ4VXjnDOasC">
    <mxGraphModel>
      <root>
        <mxCell id="0" />
        <mxCell id="1" parent="0" />
      </root>
    </mxGraphModel>
  </diagram>
</mxfile>
